<?xml version="1.0" encoding="UTF-8"?>
<svg id="Capa_2" data-name="Capa 2" xmlns="http://www.w3.org/2000/svg" viewBox="0 0 186.12 159.58">
  <defs>
    <style>
      .cls-1 {
        fill: #929496;
      }
    </style>
  </defs>
  <g id="Layer_1" data-name="Layer 1">
    <g>
      <path class="cls-1" d="M3.78,112.43h27.55c7.53,27.5,33.04,47.15,61.79,47.15s56.37-21.28,62.64-50.61c.24-1.12-.04-2.28-.76-3.16-.72-.89-1.8-1.4-2.94-1.4h-19.01c-1.65,0-3.1,1.07-3.6,2.63-5.04,15.9-19.65,26.58-36.34,26.58-14.66,0-27.79-8.33-34.15-21.19h27.41c1.53,0,2.91-.92,3.49-2.33.59-1.42.26-3.04-.82-4.12l-41.3-41.3c-1.42-1.42-3.93-1.42-5.34,0L1.11,105.98c-1.08,1.08-1.41,2.7-.82,4.12.59,1.41,1.96,2.33,3.49,2.33ZM77.26,104.87h-23.91c-1.21,0-2.35.58-3.06,1.56-.71.98-.91,2.24-.52,3.4,6.19,18.74,23.62,31.33,43.35,31.33s35.85-11.63,42.61-29.21h11.46c-7.15,23.48-29.18,40.07-54.08,40.07-26.26,0-49.46-18.59-55.15-44.19-.38-1.73-1.92-2.96-3.69-2.96H12.89l32.19-32.18,32.19,32.18Z"/>
      <path class="cls-1" d="M34.05,55.17h19.01c1.64,0,3.1-1.07,3.6-2.63,5.05-15.9,19.65-26.58,36.34-26.58,14.67,0,27.79,8.33,34.15,21.19h-27.41c-1.53,0-2.91.92-3.49,2.33-.59,1.41-.26,3.04.82,4.12l41.3,41.3c.74.74,1.71,1.11,2.67,1.11s1.93-.37,2.67-1.11l41.3-41.3c1.08-1.08,1.4-2.71.82-4.12-.59-1.41-1.96-2.33-3.49-2.33h-27.55C147.26,19.65,121.75,0,93,0S36.63,21.28,30.36,50.61c-.24,1.12.04,2.28.76,3.16.72.89,1.8,1.4,2.94,1.4ZM93,7.55c26.26,0,49.46,18.59,55.16,44.19.38,1.73,1.92,2.96,3.69,2.96h21.38l-32.18,32.18-32.19-32.18h23.91c1.21,0,2.35-.58,3.06-1.56.71-.98.91-2.25.52-3.39-6.2-18.75-23.61-31.34-43.35-31.34s-35.85,11.63-42.61,29.22h-11.47c7.15-23.48,29.18-40.07,54.08-40.07Z"/>
    </g>
  </g>
</svg>