<?xml version="1.0" encoding="UTF-8"?>
<svg id="Capa_2" data-name="Capa 2" xmlns="http://www.w3.org/2000/svg" viewBox="0 0 141.62 157.4">
  <defs>
    <style>
      .cls-1 {
        fill: #929496;
      }
    </style>
  </defs>
  <g id="Layer_1" data-name="Layer 1">
    <g>
      <path class="cls-1" d="M101.07,21C81.29-3.35,45.38-7.07,21.03,12.71,9.23,22.29,1.88,35.9.31,51.01c-1.57,15.12,2.85,29.94,12.43,41.74,9.58,11.8,23.19,19.15,38.3,20.72,1.99.21,3.99.31,5.97.31,8.34,0,16.46-1.83,23.93-5.32l38.62,47.54c.74.92,1.83,1.39,2.93,1.39.84,0,1.68-.27,2.38-.84l15.36-12.47c.78-.63,1.27-1.55,1.37-2.54.11-1-.19-1.99-.82-2.77l-38.56-47.46c6.27-8.22,10.19-18.03,11.29-28.58,1.56-15.12-2.85-29.94-12.43-41.74ZM105.99,61.96c-1.35,13.11-7.74,24.91-17.97,33.22-10.23,8.31-23.09,12.15-36.2,10.78-13.11-1.36-24.91-7.74-33.22-17.97-8.31-10.23-12.14-23.09-10.78-36.2,1.36-13.11,7.74-24.91,17.97-33.22,9.13-7.41,20.13-11.02,31.06-11.02,14.36,0,28.61,6.22,38.35,18.21,8.31,10.23,12.14,23.08,10.78,36.19ZM123.04,148.31l-35.39-43.57c1.76-1.14,3.48-2.37,5.13-3.71,1.54-1.25,3.01-2.58,4.39-3.96l35.36,43.53-9.49,7.71Z"/>
      <path class="cls-1" d="M61.2,15.44c-11.07-1.14-21.92,2.09-30.55,9.1-8.64,7.01-14.02,16.97-15.17,28.04-1.15,11.07,2.09,21.91,9.1,30.55,8.22,10.12,20.24,15.37,32.37,15.37,9.23,0,18.52-3.05,26.22-9.3,17.83-14.48,20.55-40.76,6.07-58.59-7.01-8.64-16.97-14.02-28.04-15.17ZM78.4,83.34c-14.59,11.85-36.11,9.62-47.96-4.97-5.74-7.07-8.39-15.95-7.45-25.01.94-9.06,5.35-17.21,12.42-22.95,6.14-4.98,13.64-7.64,21.43-7.64,1.19,0,2.38.06,3.58.19,9.06.94,17.21,5.35,22.95,12.42,11.85,14.59,9.62,36.11-4.97,47.97Z"/>
    </g>
  </g>
</svg>