<?xml version="1.0" encoding="UTF-8"?>
<svg id="Capa_2" data-name="Capa 2" xmlns="http://www.w3.org/2000/svg" viewBox="0 0 197.03 163.03">
  <defs>
    <style>
      .cls-1 {
        fill: #929496;
      }
    </style>
  </defs>
  <g id="Layer_1" data-name="Layer 1">
    <path class="cls-1" d="M8.82,100.9h75.23v11.82h-17.64c-1.43,0-2.74.81-3.38,2.09-.64,1.28-.5,2.81.36,3.95l32.1,42.76c.72.95,1.83,1.51,3.02,1.51s2.31-.56,3.02-1.51l32.1-42.76c.86-1.15,1-2.68.36-3.95-.64-1.28-1.95-2.09-3.38-2.09h-16.67v-11.82h73.48c1.34,0,2.58-.71,3.26-1.87,4.43-7.57,6.34-25.17,6.34-32.49,0-25.61-20.84-46.45-46.46-46.45-2.96,0-5.92.28-8.83.84C131.06,7.78,114.84,0,97.85,0c-23.75,0-44.52,14.47-52.81,36.39-3.04-.83-6.17-1.25-9.35-1.25C16.01,35.15,0,51.16,0,70.84c0,5.56,1.68,22.14,5.64,28.32.69,1.08,1.89,1.74,3.18,1.74ZM46.02,44.67c.98.39,2.08.35,3.03-.11.95-.46,1.67-1.29,1.97-2.3,6.31-20.76,25.13-34.7,46.83-34.7,15.66,0,30,7.23,39.34,19.83.91,1.23,2.47,1.78,3.94,1.42,3.09-.77,6.27-1.16,9.44-1.16,21.45,0,38.9,17.45,38.9,38.9,0,7.1-1.81,20.38-4.41,26.81h-71.12v-28.01c0-2.09-1.69-3.78-3.77-3.78h-22.33c-2.09,0-3.78,1.69-3.78,3.78v28.01H11.15c-2.05-5.2-3.6-16.47-3.6-22.5,0-15.52,12.62-28.14,28.14-28.14,3.55,0,7.03.66,10.33,1.96ZM110.17,120.27h12.89l-24.54,32.69-24.54-32.69h13.86c2.08,0,3.78-1.69,3.78-3.78v-47.38h14.78v47.38c0,2.09,1.69,3.78,3.78,3.78Z"/>
  </g>
</svg>