<?xml version="1.0" encoding="UTF-8"?>
<svg id="Capa_2" data-name="Capa 2" xmlns="http://www.w3.org/2000/svg" viewBox="0 0 177.14 148.35">
  <defs>
    <style>
      .cls-1 {
        fill: #929496;
      }
    </style>
  </defs>
  <g id="Layer_1" data-name="Layer 1">
    <g>
      <path class="cls-1" d="M174.07,91.18l-6.44-1.23c-.3-3.53-1.03-6.99-2.15-10.36l5.43-3.69c1.73-1.17,2.17-3.52,1-5.24l-9.55-14.05c-.56-.83-1.43-1.4-2.41-1.59-.98-.19-2,.02-2.83.59l-5.43,3.69c-2.72-2.29-5.67-4.23-8.84-5.82l1.23-6.44c.39-2.05-.95-4.02-3-4.41l-16.68-3.19c-.99-.19-2,.02-2.83.59-.83.57-1.4,1.43-1.59,2.42l-1.23,6.44c-3.52.3-6.99,1.02-10.36,2.15l-3.69-5.43c-.56-.83-1.43-1.4-2.42-1.59-.98-.19-2,.03-2.83.59l-14.05,9.55c-.83.57-1.4,1.43-1.59,2.42-.19.99.02,2,.59,2.83l3.69,5.43c-2.29,2.71-4.24,5.67-5.81,8.84l-6.44-1.23c-.98-.18-2,.03-2.83.59-.83.56-1.4,1.43-1.59,2.42l-3.18,16.68c-.39,2.05.95,4.03,3,4.42l6.44,1.23c.3,3.53,1.02,6.99,2.15,10.36l-5.43,3.69c-.83.56-1.4,1.43-1.59,2.41-.19.98.02,2,.59,2.83l9.55,14.05c.56.83,1.43,1.4,2.41,1.59.98.18,2-.03,2.83-.59l5.43-3.69c2.72,2.29,5.67,4.23,8.84,5.81l-1.23,6.44c-.39,2.05.95,4.03,3,4.42l16.69,3.19c.24.04.47.06.71.06,1.78,0,3.36-1.26,3.71-3.07l1.23-6.44c3.53-.3,6.99-1.02,10.36-2.15l3.69,5.43c.56.83,1.43,1.4,2.42,1.59.98.19,2-.02,2.83-.59l14.05-9.55c1.72-1.17,2.17-3.52,1-5.25l-3.69-5.43c2.29-2.72,4.24-5.67,5.82-8.84l6.44,1.23c2.04.39,4.03-.95,4.42-3l3.18-16.69c.19-.98-.02-2-.59-2.83-.56-.83-1.43-1.4-2.42-1.59ZM167.18,107.15l-5.64-1.07c-1.76-.34-3.51.61-4.19,2.26-1.8,4.31-4.36,8.22-7.63,11.6-1.24,1.29-1.41,3.27-.41,4.74l3.23,4.76-7.8,5.3-3.23-4.76c-1-1.48-2.91-2.05-4.56-1.37-4.35,1.8-8.93,2.75-13.6,2.83-1.79.03-3.31,1.31-3.64,3.07l-1.07,5.64-9.26-1.77,1.08-5.64c.34-1.76-.61-3.51-2.26-4.2-4.31-1.8-8.22-4.36-11.6-7.63-1.29-1.25-3.27-1.41-4.75-.41l-4.76,3.23-5.3-7.8,4.76-3.23c1.48-1,2.05-2.91,1.37-4.56-1.8-4.35-2.75-8.93-2.83-13.6-.03-1.79-1.31-3.31-3.07-3.64l-5.64-1.07,1.76-9.26,5.64,1.08c1.75.34,3.5-.61,4.19-2.26,1.8-4.31,4.36-8.21,7.64-11.6,1.24-1.29,1.41-3.27.41-4.74l-3.23-4.76,7.8-5.3,3.23,4.76c1,1.48,2.91,2.05,4.56,1.37,4.35-1.79,8.93-2.74,13.6-2.82,1.79-.03,3.31-1.31,3.65-3.07l1.08-5.64,9.26,1.77-1.07,5.64c-.34,1.76.61,3.51,2.26,4.19,4.31,1.8,8.22,4.36,11.6,7.63,1.29,1.25,3.27,1.41,4.75.41l4.75-3.24,5.3,7.8-4.76,3.23c-1.48,1.01-2.05,2.91-1.37,4.56,1.8,4.35,2.75,8.93,2.83,13.6.03,1.79,1.31,3.31,3.07,3.64l5.64,1.08-1.77,9.26Z"/>
      <path class="cls-1" d="M127.74,67.2c-7.12-1.36-14.34.14-20.34,4.21-6,4.08-10.05,10.24-11.4,17.36-1.36,7.12.13,14.35,4.21,20.34,4.07,5.99,10.24,10.05,17.36,11.4h0c1.71.33,3.42.48,5.1.48,12.76,0,24.17-9.07,26.65-22.06,2.8-14.7-6.87-28.94-21.57-31.75ZM141.89,97.53c-.98,5.14-3.9,9.59-8.23,12.53-4.33,2.94-9.54,4.02-14.68,3.04h0c-5.14-.98-9.59-3.91-12.53-8.23-2.94-4.33-4.02-9.54-3.04-14.68.98-5.14,3.91-9.59,8.23-12.53,3.28-2.23,7.08-3.39,10.97-3.39,1.23,0,2.48.12,3.71.35,10.61,2.02,17.6,12.3,15.57,22.91Z"/>
      <path class="cls-1" d="M36.46,74.58l.7,4.88c.11.74.51,1.42,1.11,1.87.49.37,1.09.57,1.7.57.13,0,.27-.01.4-.03l12.64-1.81c1.55-.22,2.63-1.66,2.41-3.21l-.7-4.88c2.43-1.08,4.72-2.44,6.84-4.06l3.95,2.96c1.25.94,3.03.68,3.97-.57l7.65-10.22c.94-1.25.69-3.03-.57-3.97l-3.95-2.96c.96-2.49,1.62-5.06,1.97-7.7l4.88-.7c.74-.11,1.42-.5,1.87-1.11.45-.6.64-1.36.54-2.1l-1.81-12.64c-.22-1.55-1.66-2.62-3.21-2.41l-4.88.7c-1.08-2.43-2.44-4.72-4.06-6.84l2.96-3.95c.45-.6.65-1.36.54-2.1-.11-.75-.51-1.42-1.11-1.87l-10.22-7.65c-.6-.45-1.36-.65-2.11-.54-.74.11-1.42.51-1.87,1.11l-2.96,3.95c-2.49-.96-5.07-1.62-7.7-1.97l-.7-4.88c-.22-1.55-1.65-2.62-3.21-2.4l-12.63,1.81c-.75.11-1.42.51-1.87,1.11-.45.6-.64,1.36-.54,2.1l.7,4.88c-2.43,1.08-4.72,2.44-6.84,4.07l-3.95-2.96c-.6-.45-1.36-.64-2.11-.54-.74.11-1.42.51-1.87,1.11l-7.65,10.22c-.45.6-.64,1.36-.54,2.1.11.75.51,1.42,1.11,1.87l3.95,2.96c-.96,2.49-1.63,5.07-1.98,7.7l-4.88.7c-.74.11-1.42.51-1.87,1.11-.45.6-.64,1.36-.54,2.11l1.81,12.64c.22,1.55,1.66,2.63,3.21,2.41l4.88-.7c1.08,2.43,2.44,4.72,4.06,6.84l-2.96,3.95c-.45.6-.65,1.36-.54,2.1.11.75.5,1.42,1.11,1.87l10.22,7.65c1.26.94,3.04.69,3.97-.57l2.96-3.95c2.49.96,5.07,1.62,7.7,1.97ZM25.55,67.43l-2.59,3.46-5.67-4.25,2.59-3.46c.81-1.08.75-2.57-.14-3.58-2.34-2.66-4.13-5.67-5.33-8.98-.46-1.26-1.75-2.03-3.07-1.84l-4.27.61-1.01-7.02,4.27-.61c1.33-.19,2.34-1.29,2.43-2.63.22-3.5,1.09-6.91,2.59-10.11.57-1.22.2-2.67-.87-3.47l-3.46-2.59,4.25-5.68,3.46,2.59c1.07.8,2.57.74,3.58-.14,2.66-2.34,5.67-4.13,8.97-5.33,1.26-.46,2.03-1.74,1.84-3.07l-.61-4.27,7.02-1.01.61,4.27c.19,1.33,1.29,2.34,2.63,2.43,3.5.22,6.9,1.09,10.11,2.59,1.22.57,2.67.2,3.47-.87l2.59-3.46,5.68,4.25-2.59,3.46c-.81,1.08-.75,2.57.14,3.58,2.34,2.66,4.13,5.68,5.33,8.98.46,1.27,1.74,2.03,3.07,1.84l4.27-.61,1.01,7.02-4.27.61c-1.33.19-2.35,1.29-2.43,2.63-.22,3.5-1.09,6.91-2.59,10.11-.57,1.22-.21,2.67.87,3.47l3.46,2.59-4.25,5.67-3.46-2.59c-1.08-.81-2.57-.75-3.58.14-2.66,2.34-5.68,4.13-8.98,5.33-1.26.46-2.03,1.74-1.84,3.07l.61,4.27-7.01,1.01-.61-4.27c-.19-1.33-1.29-2.34-2.63-2.43-3.5-.22-6.91-1.09-10.11-2.59-.39-.18-.79-.26-1.2-.26-.87,0-1.72.4-2.27,1.14Z"/>
      <path class="cls-1" d="M43.85,61.14c11.13-1.6,18.89-11.96,17.29-23.09-1.6-11.13-11.96-18.89-23.09-17.3-11.13,1.6-18.89,11.96-17.3,23.09,1.46,10.16,10.2,17.5,20.18,17.5.96,0,1.94-.07,2.91-.21ZM26.37,43.04c-1.15-8.03,4.45-15.51,12.48-16.67.71-.1,1.41-.15,2.1-.15,7.2,0,13.51,5.3,14.56,12.63,1.16,8.04-4.44,15.51-12.48,16.67-8.04,1.15-15.51-4.45-16.67-12.48Z"/>
    </g>
  </g>
</svg>