<?xml version="1.0" encoding="UTF-8"?>
<svg id="Capa_2" data-name="Capa 2" xmlns="http://www.w3.org/2000/svg" viewBox="0 0 140.11 150.76">
  <defs>
    <style>
      .cls-1 {
        fill: #929496;
      }
    </style>
  </defs>
  <g id="Layer_1" data-name="Layer 1">
    <g>
      <path class="cls-1" d="M0,112.53v33.01c0,2.88,2.34,5.22,5.22,5.22h129.66c2.88,0,5.22-2.34,5.22-5.22v-33.01c0-2.88-2.34-5.22-5.22-5.22h-12.77c-2.88,0-5.22,2.34-5.22,5.22v14.99H23.21v-14.99c0-2.88-2.34-5.22-5.22-5.22H5.22c-2.88,0-5.22,2.34-5.22,5.22ZM6.31,113.62h10.59v17.06c0,1.74,1.41,3.15,3.16,3.15h100c1.74,0,3.16-1.41,3.16-3.15v-17.06h10.59v30.83H6.31v-30.83Z"/>
      <path class="cls-1" d="M50.03,22.02h40.04c3.07,0,5.57-2.5,5.57-5.57V5.57c0-3.07-2.5-5.57-5.57-5.57h-40.04c-3.07,0-5.57,2.5-5.57,5.57v10.89c0,3.07,2.5,5.57,5.57,5.57ZM50.78,6.31h38.55v9.4h-38.55V6.31Z"/>
      <path class="cls-1" d="M44.14,51.99h-20.46c-3.37,0-6.3,1.62-7.46,4.13-.92,1.99-.59,4.22.9,5.96l23.19,27.18h0l23.19,27.18c1.48,1.73,3.87,2.73,6.56,2.73h0c2.69,0,5.08-.99,6.56-2.73l46.37-54.35c1.48-1.74,1.81-3.97.9-5.96-1.16-2.51-4.08-4.13-7.46-4.13h-21.16v-19.29c0-2.88-2.34-5.23-5.22-5.23h-40.69c-2.88,0-5.22,2.34-5.22,5.23v19.29ZM47.3,58.31c1.74,0,3.16-1.41,3.16-3.16v-21.36h38.51v21.36c0,1.74,1.42,3.16,3.16,3.16h24.31c.55,0,.99.1,1.29.23l-45.9,53.8c-.18.22-.85.52-1.76.52h0c-.91,0-1.57-.3-1.76-.51l-23.19-27.18h0l-22.71-26.62c.3-.12.73-.23,1.29-.23h23.61Z"/>
    </g>
  </g>
</svg>