<?xml version="1.0" encoding="UTF-8"?>
<svg id="Capa_2" data-name="Capa 2" xmlns="http://www.w3.org/2000/svg" viewBox="0 0 148.92 189.39">
  <defs>
    <style>
      .cls-1 {
        fill: #929496;
      }
    </style>
  </defs>
  <g id="Layer_1" data-name="Layer 1">
    <g>
      <path class="cls-1" d="M113.95,79.68H22.16c-3.67,0-3.68,5.71,0,5.71h91.79c3.67,0,3.68-5.71,0-5.71Z"/>
      <path class="cls-1" d="M113.95,105.7H22.16c-3.67,0-3.68,5.71,0,5.71h91.79c3.67,0,3.68-5.71,0-5.71Z"/>
      <path class="cls-1" d="M113.95,131.73H22.16c-3.67,0-3.68,5.71,0,5.71h91.79c3.67,0,3.68-5.71,0-5.71Z"/>
      <path class="cls-1" d="M113.95,157.75H22.16c-3.67,0-3.68,5.71,0,5.71h91.79c3.67,0,3.68-5.71,0-5.71Z"/>
      <path class="cls-1" d="M31.85,56.5c0-4.04-3.29-7.33-7.33-7.33s-7.33,3.29-7.33,7.33,3.29,7.33,7.33,7.33,7.33-3.29,7.33-7.33ZM20.24,56.5c0-2.36,1.92-4.29,4.28-4.29s4.28,1.92,4.28,4.29-1.92,4.28-4.28,4.28-4.28-1.92-4.28-4.28Z"/>
      <path class="cls-1" d="M46.29,63.83c4.04,0,7.33-3.29,7.33-7.33s-3.29-7.33-7.33-7.33-7.33,3.29-7.33,7.33,3.29,7.33,7.33,7.33ZM46.29,52.22c2.36,0,4.29,1.92,4.29,4.29s-1.92,4.28-4.29,4.28-4.28-1.92-4.28-4.28,1.92-4.29,4.28-4.29Z"/>
      <path class="cls-1" d="M68.06,63.83c4.04,0,7.33-3.29,7.33-7.33s-3.29-7.33-7.33-7.33-7.33,3.29-7.33,7.33,3.29,7.33,7.33,7.33ZM68.06,52.22c2.36,0,4.29,1.92,4.29,4.29s-1.92,4.28-4.29,4.28-4.28-1.92-4.28-4.28,1.92-4.29,4.28-4.29Z"/>
      <path class="cls-1" d="M89.82,63.83c4.04,0,7.33-3.29,7.33-7.33s-3.29-7.33-7.33-7.33-7.33,3.29-7.33,7.33,3.29,7.33,7.33,7.33ZM89.82,52.22c2.36,0,4.28,1.92,4.28,4.29s-1.92,4.28-4.28,4.28-4.28-1.92-4.28-4.28,1.92-4.29,4.28-4.29Z"/>
      <path class="cls-1" d="M104.26,56.5c0,4.04,3.29,7.33,7.33,7.33s7.33-3.29,7.33-7.33-3.29-7.33-7.33-7.33-7.33,3.29-7.33,7.33ZM111.59,52.22c2.36,0,4.28,1.92,4.28,4.29s-1.92,4.28-4.28,4.28-4.29-1.92-4.29-4.28,1.92-4.29,4.29-4.29Z"/>
      <path class="cls-1" d="M144.61,46.68c-1.34.03-3.03,0-4.94-.12v-17.31h-19.12c3.5-3.16,5.51-7.79,5.55-11.9.06-5.76-3.4-10.06-9.26-11.52-4.29-1.06-8.09-.45-10.99,1.77-2.89,2.22-4.84,6.02-5.58,10.71-.03-.04-.05-.08-.08-.12-2.33-3.91-1.57-7.91-.35-12.76.69-2.73-1.16-4.77-3.24-5.3-2.07-.52-4.53.35-5.21,3.03-1.66,6.56-2.8,15.01,3.2,22.17,1.24,1.48,2.71,2.79,4.32,3.91H0v160.13h139.67V55.34c1.21.07,2.44.11,3.69.11.43,0,.87,0,1.31-.01,2.81-.05,4.29-2.37,4.25-4.52-.04-2.14-1.55-4.22-4.31-4.23ZM135.1,33.82v12.24c-7.6-1.15-16.81-4.3-22.54-12.24h22.54ZM135.1,184.82H4.56V33.82h97.74c5.68,11.57,17.6,19.09,32.79,21.08v129.92ZM144.61,52.39c-18.5.38-33.32-7.11-39.59-19.96-.46-.95-.87-2.05-1.19-3.27l-.18-.66-.61-.3c-2.35-1.18-4.47-2.84-6.11-4.81-5.08-6.06-4.16-13.24-2.58-19.46.18-.72.68-.89,1.08-.89.17,0,.33.03.43.06.23.06,1.34.41,1.04,1.6-1.35,5.34-2.24,10.16.68,15.06.73,1.22,1.69,2.38,2.86,3.46l2.49,2.28.07-3.37c.1-5.47,1.82-9.88,4.71-12.09,2.17-1.67,5-2.07,8.4-1.23,6.11,1.51,6.98,6,6.96,8.53-.05,5.03-3.68,11.03-9.68,12.39-1.25.28-2.59.38-3.97.28l-2.73-.19,1.28,2.42c8.6,16.26,28.54,17.64,36.71,17.5h.04c1.03,0,1.16.87,1.17,1.24,0,.23-.04,1.4-1.26,1.42Z"/>
      <path class="cls-1" d="M116.2,25.73c5.06-3.33,4.68-7.02,4.28-8.45-.82-2.95-3.83-5.19-7.16-5.33-3.44-.16-6.31,1.98-7.68,5.68-.86,2.34-.95,5.04-.24,8.04l.19.83.81.27c1.35.44,2.7.66,4,.66,2.1,0,4.08-.57,5.79-1.7ZM108.2,24.11c-.37-2.06-.27-3.85.31-5.43.91-2.47,2.57-3.79,4.69-3.69,1.98.08,3.89,1.45,4.35,3.1.47,1.69-.6,3.5-3.02,5.09-2.19,1.44-4.54,1.36-6.34.92Z"/>
    </g>
  </g>
</svg>