<?xml version="1.0" encoding="UTF-8"?>
<svg id="Capa_2" data-name="Capa 2" xmlns="http://www.w3.org/2000/svg" viewBox="0 0 157.01 117.86">
  <defs>
    <style>
      .cls-1 {
        fill: #929496;
      }
    </style>
  </defs>
  <g id="Layer_1" data-name="Layer 1">
    <g>
      <path class="cls-1" d="M74.37,21.41L61.73,1.74c-.69-1.08-1.89-1.74-3.18-1.74H3.78C1.69,0,0,1.69,0,3.78v110.31c0,2.09,1.69,3.78,3.78,3.78h131.86c2.09,0,3.78-1.69,3.78-3.78v-47.09c10.24-3.65,17.59-13.4,17.59-24.87,0-14.57-11.85-26.42-26.42-26.42-6.18,0-11.86,2.15-16.36,5.72h-39.85ZM150.96,42.12c0,11.24-9.14,20.38-20.38,20.38s-20.38-9.14-20.38-20.38,9.14-20.38,20.38-20.38,20.38,9.14,20.38,20.38ZM7.55,110.3V7.55h48.94l12.64,19.68c.69,1.08,1.89,1.73,3.18,1.73h35.39c-2.24,3.88-3.54,8.36-3.54,13.16,0,14.57,11.85,26.42,26.42,26.42.43,0,.85-.05,1.28-.06v41.83H7.55Z"/>
      <path class="cls-1" d="M125.46,47.99l-3.23-3.77c-.81-.95-2.24-1.06-3.19-.25-.95.81-1.06,2.24-.25,3.19l4.73,5.52c.39.46.96.74,1.57.79.05,0,.1,0,.15,0,.56,0,1.09-.2,1.51-.57l17.75-15.78c.94-.83,1.02-2.26.19-3.2-.83-.94-2.27-1.02-3.2-.19l-16.03,14.25Z"/>
    </g>
  </g>
</svg>