<?xml version="1.0" encoding="UTF-8"?>
<svg id="Capa_2" data-name="Capa 2" xmlns="http://www.w3.org/2000/svg" viewBox="0 0 154.15 130.31">
  <defs>
    <style>
      .cls-1 {
        fill: #929496;
      }
    </style>
  </defs>
  <g id="Layer_1" data-name="Layer 1">
    <path class="cls-1" d="M4.18,130.31h145.8c2.31,0,4.17-1.87,4.17-4.18V27.85c0-2.31-1.87-4.18-4.17-4.18h-67.74L68.25,1.92c-.77-1.2-2.09-1.92-3.51-1.92H4.18C1.87,0,0,1.87,0,4.18v121.96c0,2.31,1.87,4.18,4.18,4.18ZM8.35,8.35h54.11l10.73,16.7H8.35V8.35ZM8.35,45.74v-13.57h71.6c.38,0,.71-.06,1.02-.15h64.83v89.94H8.35V45.74Z"/>
  </g>
</svg>