<?xml version="1.0" encoding="UTF-8"?>
<svg id="Capa_2" data-name="Capa 2" xmlns="http://www.w3.org/2000/svg" viewBox="0 0 126.12 153.24">
  <defs>
    <style>
      .cls-1 {
        fill: #929496;
      }
    </style>
  </defs>
  <g id="Layer_1" data-name="Layer 1">
    <g>
      <path class="cls-1" d="M92.17,152.45h0c.71,0,1.42-.26,1.96-.78l30.62-28.87c.58-.55.86-1.29.87-2.06.3-.5.49-1.09.49-1.72V12.09c0-6.67-5.42-12.09-12.09-12.09H12.09C5.42,0,0,5.42,0,12.09v129.06c0,6.67,5.42,12.09,12.09,12.09h77.94c.82,0,1.56-.3,2.14-.79ZM95.04,142.97v-11.1c0-4.57,3.72-8.3,8.3-8.3h12.27l-20.57,19.39ZM86.67,146.53H12.09c-2.97,0-5.38-2.42-5.38-5.38V12.09c0-2.97,2.41-5.38,5.38-5.38h101.95c2.97,0,5.38,2.41,5.38,5.38v103.58h-15.67c-9.41,0-17.07,7.66-17.07,17.07v13.79Z"/>
      <path class="cls-1" d="M26.12,44.6h73.89c1.85,0,3.36-1.5,3.36-3.35v-6.01c0-1.85-1.5-3.35-3.36-3.35H26.12c-1.85,0-3.36,1.5-3.36,3.35v6.01c0,1.85,1.5,3.35,3.36,3.35ZM26.79,35.91h72.54v4.67H26.79v-4.67Z"/>
      <path class="cls-1" d="M26.12,65.63h73.89c1.85,0,3.36-1.5,3.36-3.36v-6.01c0-1.85-1.5-3.36-3.36-3.36H26.12c-1.85,0-3.36,1.5-3.36,3.36v6.01c0,1.85,1.5,3.36,3.36,3.36ZM26.79,56.94h72.54v4.67H26.79v-4.67Z"/>
      <path class="cls-1" d="M103.36,83.31v-6.01c0-1.85-1.5-3.36-3.36-3.36H26.12c-1.85,0-3.36,1.5-3.36,3.36v6.01c0,1.85,1.5,3.35,3.36,3.35h73.89c1.85,0,3.36-1.5,3.36-3.35ZM99.33,82.64H26.79v-4.67h72.54v4.67Z"/>
    </g>
  </g>
</svg>