<?xml version="1.0" encoding="UTF-8"?>
<svg id="Capa_2" data-name="Capa 2" xmlns="http://www.w3.org/2000/svg" viewBox="0 0 144.76 131.22">
  <defs>
    <style>
      .cls-1 {
        fill: #929496;
      }
    </style>
  </defs>
  <g id="Layer_1" data-name="Layer 1">
    <g>
      <path class="cls-1" d="M125.19,0H19.56C8.78,0,0,8.78,0,19.56v67.69c0,10.79,8.78,19.56,19.56,19.56h68.7l35.42,23.77c.64.43,1.37.64,2.11.64.61,0,1.22-.15,1.78-.44,1.23-.66,2-1.94,2-3.33v-22.51c6.88-2.92,15.19-9.23,15.19-17.69V19.56c0-10.79-8.78-19.56-19.56-19.56ZM137.2,87.25c0,4.43-6.61,9.59-12.55,11.46-1.57.5-2.64,1.95-2.64,3.6v18.05l-30.49-20.46c-.62-.42-1.36-.64-2.11-.64H19.56c-6.62,0-12.01-5.39-12.01-12.01V19.56c0-6.62,5.39-12.01,12.01-12.01h105.63c6.62,0,12.01,5.39,12.01,12.01v67.69Z"/>
      <path class="cls-1" d="M116.81,25.18H27.72c-3.92,0-7.1,3.18-7.1,7.1s3.18,7.1,7.1,7.1h89.09c3.91,0,7.1-3.18,7.1-7.1s-3.18-7.1-7.1-7.1ZM116.81,34.85H27.72c-1.42,0-2.57-1.15-2.57-2.57s1.15-2.57,2.57-2.57h89.09c1.41,0,2.57,1.15,2.57,2.57s-1.15,2.57-2.57,2.57Z"/>
      <path class="cls-1" d="M116.81,46H27.72c-3.92,0-7.1,3.18-7.1,7.1s3.18,7.1,7.1,7.1h89.09c3.91,0,7.1-3.18,7.1-7.1s-3.18-7.1-7.1-7.1ZM116.81,55.67H27.72c-1.42,0-2.57-1.15-2.57-2.57s1.15-2.57,2.57-2.57h89.09c1.41,0,2.57,1.15,2.57,2.57s-1.15,2.57-2.57,2.57Z"/>
      <path class="cls-1" d="M116.81,66.11H27.72c-3.92,0-7.1,3.18-7.1,7.1s3.18,7.1,7.1,7.1h89.09c3.91,0,7.1-3.18,7.1-7.1s-3.18-7.1-7.1-7.1ZM116.81,75.78H27.72c-1.42,0-2.57-1.15-2.57-2.57s1.15-2.57,2.57-2.57h89.09c1.41,0,2.57,1.15,2.57,2.57s-1.15,2.57-2.57,2.57Z"/>
    </g>
  </g>
</svg>