<?xml version="1.0" encoding="UTF-8"?>
<svg id="Capa_2" data-name="Capa 2" xmlns="http://www.w3.org/2000/svg" viewBox="0 0 202.82 195.91">
  <defs>
    <style>
      .cls-1 {
        fill: #929496;
      }
    </style>
  </defs>
  <g id="Layer_1" data-name="Layer 1">
    <g>
      <path class="cls-1" d="M178.64,32.12h-37.34v23.63h37.34v-23.63ZM168.28,35.28l-8.31,6.64-8.32-6.64h16.63ZM175.48,52.6h-31.03v-17.32h2.14l13.38,10.68,13.37-10.68h2.14v17.32Z"/>
      <path class="cls-1" d="M90.04,164.91c.6,5.95,3.26,11.56,7.52,15.79.52.52,1.21.79,1.92.79.27,0,.56-.04.82-.13.97-.31,1.68-1.12,1.86-2.13.7-3.98,4.13-6.87,8.17-6.87h13.6c3.44,0,6.48,2.08,7.73,5.31.35.91,1.16,1.56,2.13,1.71.96.15,1.94-.23,2.54-.99,4.23-5.32,6.2-12,5.52-18.81-1.21-12.27-10.99-22.04-23.25-23.25-.92-.09-1.82-.14-2.67-.14-7.34,0-14.38,3.12-19.31,8.57-4.99,5.52-7.34,12.67-6.6,20.14ZM115.95,168.43c-5.44,0-9.86-4.43-9.86-9.86s4.43-9.86,9.86-9.86,9.86,4.43,9.86,9.86-4.42,9.86-9.86,9.86ZM100.69,148.42c3.9-4.31,9.46-6.78,15.26-6.78.67,0,1.38.04,2.13.11,9.68.95,17.4,8.67,18.36,18.36.4,4.02-.36,7.99-2.16,11.48-2.15-2.48-5.15-4.09-8.47-4.55,1.97-2.28,3.17-5.24,3.17-8.49,0-7.18-5.84-13.02-13.02-13.02s-13.02,5.84-13.02,13.02c0,3.45,1.36,6.58,3.55,8.91-3.27.95-6.07,3.07-7.84,5.95-1.75-2.71-2.86-5.82-3.18-9.06-.59-5.92,1.27-11.58,5.22-15.94Z"/>
      <path class="cls-1" d="M22.07,113.07c.78.77,1.95,1,2.97.58,1.02-.43,1.68-1.42,1.68-2.52v-2.4c0-8.41,6.3-15.47,14.66-16.41.03,0,.06,0,.1-.01.64-.07,1.21-.1,1.77-.1h23.71c9.11,0,16.52,7.41,16.52,16.52v2.4c0,1.1.66,2.09,1.68,2.52.34.14.7.21,1.05.21.7,0,1.4-.27,1.92-.79,9.02-8.92,13.99-20.79,13.99-33.42,0-25.92-21.09-47.02-47.02-47.02S8.07,53.72,8.07,79.65c0,12.63,4.97,24.5,14,33.43ZM57.6,86.76h-5.03c-8.79-1.23-15.59-8.78-15.59-17.92,0-9.99,8.12-18.12,18.11-18.12s18.12,8.13,18.12,18.12c0,9.13-6.8,16.69-15.6,17.92ZM55.09,38.09c22.92,0,41.57,18.64,41.57,41.56,0,9.01-2.87,17.59-8.17,24.71-1.89-9.35-9.76-16.56-19.42-17.49,5.39-4.18,8.87-10.69,8.87-18.03,0-12.6-10.25-22.85-22.85-22.85s-22.84,10.25-22.84,22.85c0,7.33,3.49,13.85,8.88,18.03-.07,0-.14,0-.21.02-.11,0-.22.02-.33.04-9.55,1.16-17.04,8.31-18.88,17.43-5.3-7.12-8.17-15.7-8.17-24.71,0-22.92,18.64-41.56,41.57-41.56Z"/>
      <path class="cls-1" d="M159.97,78.09c19.42,0,35.23-15.8,35.23-35.23s-15.8-35.23-35.23-35.23-35.23,15.8-35.23,35.23,15.8,35.23,35.23,35.23ZM159.97,13.08c16.42,0,29.78,13.36,29.78,29.78s-13.36,29.78-29.78,29.78-29.78-13.36-29.78-29.78,13.36-29.78,29.78-29.78Z"/>
      <path class="cls-1" d="M0,79.65c0,30.38,24.71,55.1,55.09,55.1,8.16,0,16.31-1.86,23.7-5.4l10.77,11.99c-5.47,6.87-7.98,15.42-7.11,24.32,1.58,15.87,14.23,28.52,30.09,30.09,1.11.11,2.26.17,3.42.17,9.49,0,18.59-4.04,24.96-11.07,6.46-7.14,9.5-16.38,8.54-26.02-1.57-15.87-14.23-28.52-30.09-30.09-6.83-.68-13.78.79-19.81,4.14l-9.6-10.68c12.72-10.44,20.23-26.13,20.23-42.55,0-4.33-.53-8.68-1.58-12.96l13.06-4.62c7.26,14.45,22.02,23.65,38.3,23.65,23.63,0,42.86-19.23,42.86-42.86S183.6,0,159.97,0s-42.86,19.23-42.86,42.86c0,2.23.18,4.49.55,6.76l-13.65,4.82c-9.44-18.23-28.37-29.88-48.92-29.88C24.71,24.56,0,49.27,0,79.65ZM55.09,30.01c19.26,0,36.94,11.36,45.06,28.95.59,1.28,2.06,1.9,3.38,1.43l18.15-6.41c1.29-.46,2.05-1.81,1.75-3.15-.58-2.67-.88-5.35-.88-7.96,0-20.63,16.78-37.41,37.41-37.41s37.41,16.78,37.41,37.41-16.78,37.41-37.41,37.41c-14.95,0-28.44-8.9-34.37-22.67-.57-1.32-2.06-1.97-3.41-1.49l-17.77,6.28c-1.37.48-2.11,1.95-1.71,3.34,1.34,4.59,2.02,9.27,2.02,13.92,0,15.68-7.62,30.64-20.37,40-.62.46-1.02,1.15-1.1,1.92-.08.77.17,1.53.68,2.1l13.06,14.53c.9,1,2.39,1.2,3.51.47,5.43-3.53,11.94-5.13,18.31-4.5,13.29,1.32,23.89,11.92,25.21,25.21.8,8.09-1.75,15.84-7.16,21.82-5.34,5.89-12.96,9.27-20.92,9.27-.98,0-1.94-.05-2.88-.14-13.29-1.31-23.88-11.91-25.21-25.2-.8-8.09,1.75-15.84,7.06-21.71.08-.07.25-.24.32-.32.9-1.04.89-2.59-.03-3.61l-13.77-15.32c-.53-.59-1.28-.9-2.03-.9-.43,0-.87.1-1.27.31-7.2,3.8-14.96,5.73-23.06,5.73-27.37,0-49.63-22.27-49.63-49.64S27.72,30.01,55.09,30.01Z"/>
    </g>
  </g>
</svg>