<?xml version="1.0" encoding="UTF-8"?>
<svg id="Capa_2" data-name="Capa 2" xmlns="http://www.w3.org/2000/svg" viewBox="0 0 117.94 146.02">
  <defs>
    <style>
      .cls-1 {
        fill: #929496;
      }
    </style>
  </defs>
  <g id="Layer_1" data-name="Layer 1">
    <path class="cls-1" d="M92.28,51.32c14.15,0,25.66-11.51,25.66-25.66S106.43,0,92.28,0s-25.66,11.51-25.66,25.66c0,3.26.63,6.36,1.75,9.23l-28.14,19.38c-4.14-2.87-9.16-4.57-14.58-4.57-14.15,0-25.66,11.51-25.66,25.66s11.51,25.66,25.66,25.66c5.95,0,11.42-2.06,15.78-5.47l26.14,17.99c-.6,2.18-.95,4.46-.95,6.83,0,14.15,11.51,25.66,25.66,25.66s25.66-11.51,25.66-25.66-11.51-25.66-25.66-25.66c-6.19,0-11.88,2.21-16.32,5.88l-25.77-17.73c.73-2.37,1.12-4.89,1.12-7.49,0-3.12-.59-6.11-1.62-8.88l28.33-19.5c4.08,2.74,8.99,4.34,14.26,4.34ZM92.28,6.31c10.67,0,19.35,8.68,19.35,19.35s-8.68,19.35-19.35,19.35-19.34-8.68-19.34-19.35,8.68-19.35,19.34-19.35ZM25.66,94.7c-10.67,0-19.35-8.68-19.35-19.34s8.68-19.34,19.35-19.34,19.35,8.68,19.35,19.34-8.68,19.34-19.35,19.34ZM92.28,101.01c10.67,0,19.35,8.68,19.35,19.35s-8.68,19.34-19.35,19.34-19.34-8.68-19.34-19.34,8.68-19.35,19.34-19.35ZM71.6,105.24c-.55.75-1.07,1.53-1.53,2.34l-24.11-16.59c.57-.74,1.1-1.51,1.59-2.31l24.06,16.56ZM46.78,60.82c-.53-.77-1.12-1.51-1.73-2.21l26.33-18.13c.54.77,1.13,1.49,1.75,2.19l-26.35,18.15Z"/>
  </g>
</svg>