<?xml version="1.0" encoding="UTF-8"?>
<svg id="Capa_2" data-name="Capa 2" xmlns="http://www.w3.org/2000/svg" viewBox="0 0 157.85 221.32">
  <defs>
    <style>
      .cls-1 {
        fill: #929496;
      }
    </style>
  </defs>
  <g id="Layer_1" data-name="Layer 1">
    <g>
      <path class="cls-1" d="M3.78,221.32h150.3c2.09,0,3.78-1.69,3.78-3.78V67.24c0-2.09-1.69-3.78-3.78-3.78h-50.37c-2.09,0-3.78,1.69-3.78,3.78v22.81c0,2.09,1.69,3.78,3.78,3.78h23.78v97.12H30.37v-97.12h23.78c2.09,0,3.78-1.69,3.78-3.78v-22.81c0-2.09-1.69-3.78-3.78-3.78H3.78c-2.08,0-3.78,1.69-3.78,3.78v150.3c0,2.09,1.69,3.78,3.78,3.78ZM7.55,71.01h42.82v15.27h-23.78c-2.09,0-3.78,1.69-3.78,3.78v104.67c0,2.09,1.69,3.78,3.78,3.78h104.67c2.09,0,3.78-1.69,3.78-3.78v-104.67c0-2.08-1.69-3.78-3.78-3.78h-23.78v-15.27h42.82v142.75H7.55V71.01Z"/>
      <path class="cls-1" d="M69.39,126.67h19.31c2.09,0,3.78-1.69,3.78-3.78V50.31h19.15c1.43,0,2.74-.81,3.38-2.09.64-1.28.5-2.81-.36-3.95L82.55,1.51c-.71-.95-1.83-1.51-3.02-1.51s-2.3.56-3.02,1.51l-32.1,42.76c-.86,1.14-1,2.67-.36,3.95.64,1.28,1.94,2.09,3.38,2.09h18.18v72.58c0,2.09,1.69,3.78,3.78,3.78ZM79.52,10.07l24.54,32.69h-15.37c-2.09,0-3.78,1.69-3.78,3.78v72.58h-11.76V46.53c0-2.08-1.69-3.78-3.78-3.78h-14.4l24.54-32.69Z"/>
    </g>
  </g>
</svg>